<svg width="79" height="44" viewBox="0 0 79 44" fill="none" xmlns="http://www.w3.org/2000/svg">
<path d="M35.3466 38.8007L34.1082 36.4199H33.7434V38.8007H31.7658V32.1191H34.2138C35.1834 32.1191 35.9034 32.2919 36.3738 32.6279C36.8442 32.9735 37.0842 33.5111 37.0842 34.2407C37.0842 34.6535 36.9882 34.9991 36.8058 35.2775C36.6234 35.5559 36.3162 35.8151 35.9034 36.0551L37.5354 38.8007H35.3466ZM33.7434 33.4727V35.0951H34.2618C34.5306 35.0951 34.7322 35.0279 34.8666 34.8839C35.001 34.7399 35.0682 34.5287 35.0682 34.2407C35.0682 33.7319 34.7706 33.4727 34.1658 33.4727H33.7434ZM40.6556 31.9271C41.654 31.9271 42.422 32.2343 42.9692 32.8487C43.5068 33.4727 43.7756 34.3367 43.7756 35.4503C43.7756 36.1703 43.6508 36.8039 43.4108 37.3319C43.1708 37.8599 42.8156 38.2727 42.3452 38.5607C41.8748 38.8487 41.318 38.9927 40.6556 38.9927C39.6572 38.9927 38.8892 38.6759 38.3516 38.0519C37.8044 37.4279 37.5356 36.5639 37.5356 35.4503C37.5356 34.7303 37.6604 34.0967 37.9004 33.5687C38.1404 33.0407 38.4956 32.6375 38.966 32.3495C39.4364 32.0711 39.9932 31.9271 40.6556 31.9271ZM40.6556 33.3287C40.2812 33.3287 40.0028 33.4919 39.8396 33.8087C39.6764 34.1351 39.59 34.6823 39.59 35.4503C39.59 36.2183 39.6764 36.7655 39.8396 37.0919C40.0028 37.4279 40.2812 37.5911 40.6556 37.5911C41.0396 37.5911 41.318 37.4279 41.4812 37.1015C41.6444 36.7751 41.7212 36.2279 41.7212 35.4503C41.7212 34.6823 41.6348 34.1351 41.4716 33.8087C41.3084 33.4919 41.03 33.3287 40.6556 33.3287ZM47.2837 31.9271C48.2821 31.9271 49.0501 32.2343 49.5973 32.8487C50.1349 33.4727 50.4037 34.3367 50.4037 35.4503C50.4037 36.1703 50.2789 36.8039 50.0389 37.3319C49.7989 37.8599 49.4437 38.2727 48.9733 38.5607C48.5029 38.8487 47.9461 38.9927 47.2837 38.9927C46.2853 38.9927 45.5173 38.6759 44.9797 38.0519C44.4325 37.4279 44.1637 36.5639 44.1637 35.4503C44.1637 34.7303 44.2885 34.0967 44.5285 33.5687C44.7685 33.0407 45.1237 32.6375 45.5941 32.3495C46.0645 32.0711 46.6213 31.9271 47.2837 31.9271ZM47.2837 33.3287C46.9093 33.3287 46.6309 33.4919 46.4677 33.8087C46.3045 34.1351 46.2181 34.6823 46.2181 35.4503C46.2181 36.2183 46.3045 36.7655 46.4677 37.0919C46.6309 37.4279 46.9093 37.5911 47.2837 37.5911C47.6677 37.5911 47.9461 37.4279 48.1093 37.1015C48.2725 36.7751 48.3493 36.2279 48.3493 35.4503C48.3493 34.6823 48.2629 34.1351 48.0997 33.8087C47.9365 33.4919 47.6581 33.3287 47.2837 33.3287ZM55.2558 32.1191L55.0542 33.4919H52.9902V34.9511H54.8046V36.3239H52.9902V38.8007H51.0126V32.1191H55.2558ZM57.6496 32.1191V38.8007H55.672V32.1191H57.6496ZM63.8991 32.1191V38.8007H61.4223L59.9631 33.9239L59.9919 34.1351C60.0591 34.6055 60.1167 35.0279 60.1647 35.4119C60.2031 35.8055 60.2223 36.2375 60.2223 36.7271V38.8007H58.4751V32.1191H60.9039L62.4207 37.0151L62.3919 36.8135C62.3151 36.3719 62.2575 35.9591 62.2191 35.5751C62.1711 35.2007 62.1519 34.7591 62.1519 34.2599V32.1191H63.8991ZM67.8771 31.9271C68.3571 31.9271 68.7987 32.0039 69.2115 32.1671C69.6147 32.3303 69.9603 32.5415 70.2483 32.8007L69.2499 33.8279C69.0387 33.6455 68.8371 33.5207 68.6451 33.4343C68.4531 33.3479 68.2323 33.3095 67.9923 33.3095C67.5219 33.3095 67.1667 33.4823 66.9171 33.8375C66.6675 34.1927 66.5427 34.7399 66.5427 35.4599C66.5427 36.0071 66.5811 36.4295 66.6579 36.7367C66.7347 37.0535 66.8595 37.2743 67.0227 37.3991C67.1859 37.5239 67.3971 37.5911 67.6659 37.5911C67.9059 37.5911 68.1267 37.5335 68.3475 37.4279V36.2087H67.6755L67.4931 34.8743H70.2483V38.2247C69.8931 38.4647 69.4899 38.6567 69.0387 38.7911C68.5875 38.9255 68.1459 38.9927 67.7235 38.9927C66.6291 38.9927 65.8227 38.6951 65.2947 38.0903C64.7667 37.4951 64.5075 36.6119 64.5075 35.4503C64.5075 34.7111 64.6515 34.0775 64.9395 33.5495C65.2275 33.0215 65.6307 32.6183 66.1395 32.3399C66.6483 32.0615 67.2339 31.9271 67.8771 31.9271Z" fill="#C56C5A"/>
<path d="M46.1414 7.78614V12.3761L37.8314 23.8361H46.4114L45.8114 28.6661H30.4514V24.1361L39.0314 12.4661H31.2914V7.78614H46.1414ZM62.0906 28.6661V20.2361H57.3206V28.6661H51.1406V7.78614H57.3206V15.4961H62.0906V7.78614H68.2706V28.6661H62.0906Z" fill="black"/>
<rect x="1.96423" y="15.9066" width="22.8941" height="22.8941" fill="#C56C5A"/>
<rect x="11.1804" y="30.6622" width="4.46176" height="8.13847" fill="white"/>
<path d="M13.4113 7.6622L24.9734 14.5237H1.84921L13.4113 7.6622Z" fill="black"/>
</svg>
